SplineFontDB: 3.0
FontName: Renner*-Light-Italic
FullName: Renner* Light Italic
FamilyName: Renner*-Light
Weight: Light
Copyright: This typeface is licensed under the SIL open font license.
UComments: "2015-9-7: Created with FontForge (http://fontforge.org)"
FontLog: "This is version 1. Font is original (not based on another digital typeface). Inspiration was taken from the American Type Founders +ACIA-Spartan+ACIA, but Renner* is not identical. No updates have been made yet."
Version: 001.000
ItalicAngle: -8
UnderlinePosition: -200
UnderlineWidth: 50
Ascent: 800
Descent: 200
InvalidEm: 0
LayerCount: 2
Layer: 0 0 "Back" 1
Layer: 1 0 "Fore" 0
XUID: [1021 266 -223186452 810138]
FSType: 0
OS2Version: 0
OS2_WeightWidthSlopeOnly: 0
OS2_UseTypoMetrics: 0
CreationTime: 1441634143
ModificationTime: 1452988881
PfmFamily: 17
TTFWeight: 300
TTFWidth: 5
LineGap: 100
VLineGap: 0
OS2TypoAscent: 800
OS2TypoAOffset: 0
OS2TypoDescent: -200
OS2TypoDOffset: 0
OS2TypoLinegap: 100
OS2WinAscent: 900
OS2WinAOffset: 0
OS2WinDescent: 300
OS2WinDOffset: 0
HheadAscent: 900
HheadAOffset: 0
HheadDescent: -200
HheadDOffset: 0
OS2SubXSize: 650
OS2SubYSize: 666
OS2SubXOff: 0
OS2SubYOff: 200
OS2SupXSize: 650
OS2SupYSize: 666
OS2SupXOff: 0
OS2SupYOff: 390
OS2StrikeYSize: 49
OS2StrikeYPos: 258
OS2CapHeight: 730
OS2XHeight: 526
OS2Vendor: 'PfEd'
Lookup: 258 0 0 "Pairwise Positioning (kerning) in Latin lookup 0" { "Pairwise Positioning (kerning) in Latin lookup 0-1" [140,0,0] } ['kern' ('DFLT' <'dflt' > 'latn' <'dflt' > ) ]
MarkAttachClasses: 1
DEI: 91125
KernClass2: 11 13 "Pairwise Positioning (kerning) in Latin lookup 0-1"
 5 A L M
 7 D O Q G
 7 F V Y W
 7 b e o p
 3 K X
 1 T
 19 a c g h i j m n q u
 3 k x
 7 r v y w
 1 s
 3 A M
 7 C G O Q
 1 T
 3 V W
 3 X Y
 13 c d e g o q a
 3 i j
 11 m n p r u z
 1 s
 5 v w y
 1 x
 1 U

StartChar: I
Encoding: 73 73 0
Width: 216
VWidth: 0
Flags: W
HStem: 0 21G<76 142.822> 710 20G<176.178 243>
VStem: 76 167
DStem2: 76 0 140 0 0.139712 0.990192<8.94157 737.231>
LayerCount: 2
Fore
SplineSet
76 0 m 1
 179 730 l 1
 243 730 l 5
 140 0 l 5
 76 0 l 1
EndSplineSet
EndChar

StartChar: t
Encoding: 116 116 1
Width: 270
VWidth: 0
Flags: HW
LayerCount: 2
Fore
SplineSet
75 466 m 5
 83 526 l 1
 329 526 l 1
 321 466 l 5
 75 466 l 5
100 0 m 1
 198 700 l 1
 263 700 l 1
 164 0 l 1
 100 0 l 1
EndSplineSet
EndChar

StartChar: l
Encoding: 108 108 2
Width: 240
VWidth: 0
Flags: HW
LayerCount: 2
Fore
SplineSet
66 0 m 1
 192 894 l 5
 258 894 l 5
 132 0 l 1
 66 0 l 1
EndSplineSet
EndChar

StartChar: i
Encoding: 105 105 3
Width: 275
VWidth: 0
Flags: HW
LayerCount: 2
Fore
SplineSet
174 763 m 4xf0
 178 791 203 812 231 812 c 4
 259 812 279 791 275 763 c 4
 271 735 245 713 217 713 c 4
 189 713 170 735 174 763 c 4xf0
84 0 m 1xe8
 158 526 l 1
 222 526 l 1
 148 0 l 1
 84 0 l 1xe8
EndSplineSet
EndChar

StartChar: o
Encoding: 111 111 4
Width: 626
VWidth: 0
Flags: W
HStem: -12 60<222.141 404.426> 479 59<279.717 458.717>
LayerCount: 2
Fore
SplineSet
131 263 m 4
 114 145 194 48 310 48 c 4
 426 48 532 145 549 263 c 4
 566 381 487 479 371 479 c 4
 255 479 148 381 131 263 c 4
65 263 m 0
 86 414 228 538 379 538 c 0
 530 538 636 414 615 263 c 0
 594 112 453 -12 302 -12 c 0
 151 -12 44 112 65 263 c 0
EndSplineSet
EndChar

StartChar: H
Encoding: 72 72 6
Width: 675
VWidth: 0
Flags: HW
LayerCount: 2
Fore
SplineSet
184 344 m 1xec
 192 402 l 5
 592 402 l 5
 584 344 l 1
 184 344 l 1xec
536 0 m 1
 639 730 l 1
 702 730 l 1
 599 0 l 1
 536 0 l 1
76 0 m 1xf4
 179 730 l 1
 243 730 l 1
 140 0 l 1
 76 0 l 1xf4
EndSplineSet
EndChar

StartChar: E
Encoding: 69 69 7
Width: 552
VWidth: 0
Flags: W
HStem: 0 58<135 504> 344 58<183 445> 672 58<221 229 233 599>
DStem2: 66 0 126 0 0.139712 0.990192<8.38272 67.0713 355.855 414.404 687.065 737.231>
LayerCount: 2
Fore
SplineSet
126 0 m 1
 135 58 l 5
 513 58 l 5
 504 0 l 1
 126 0 l 1
221 672 m 1
 229 730 l 1
 607 730 l 1
 599 672 l 1
 221 672 l 1
175 344 m 1
 183 402 l 1
 453 402 l 1
 445 344 l 1
 175 344 l 1
66 0 m 1
 169 730 l 1
 233 730 l 1
 130 0 l 1
 66 0 l 1
EndSplineSet
EndChar

StartChar: F
Encoding: 70 70 8
Width: 552
VWidth: 0
Flags: HW
LayerCount: 2
Fore
SplineSet
221 672 m 1xe8
 229 730 l 1
 607 730 l 1
 599 672 l 1
 221 672 l 1xe8
175 344 m 5
 183 402 l 1
 453 402 l 1
 445 344 l 5
 175 344 l 5
66 0 m 1xf0
 169 730 l 1xf0
 233 730 l 1xe8
 130 0 l 1
 66 0 l 1xf0
EndSplineSet
EndChar

StartChar: M
Encoding: 77 77 9
Width: 832
VWidth: 0
Flags: HW
LayerCount: 2
Fore
SplineSet
412 -27 m 1
 270 615 l 1
 296 757 l 1
 441 106 l 5
 412 -27 l 1
10 0 m 1
 296 757 l 1
 286 586 l 1
 70 0 l 1
 10 0 l 1
752 0 m 1
 709 579 l 1
 758 757 l 1
 822 0 l 1
 752 0 l 1
421 109 m 5
 758 757 l 1
 742 612 l 1
 412 -27 l 1
 421 109 l 5
EndSplineSet
EndChar

StartChar: N
Encoding: 78 78 10
Width: 725
VWidth: 0
Flags: W
HStem: 0 21G<76 142.813 635.316 651.822> 730 7G<176.178 196.038 686.187 752>
VStem: 76 64<0 49.6117> 689 63<680.388 730>
LayerCount: 2
Fore
SplineSet
645 -27 m 1
 168 654 l 1
 182 757 l 1
 660 76 l 5
 645 -27 l 1
597 76 m 1
 689 730 l 1
 752 730 l 1
 649 0 l 1
 597 76 l 1
76 0 m 1
 179 730 l 1
 232 654 l 1
 140 0 l 1
 76 0 l 1
EndSplineSet
EndChar

StartChar: O
Encoding: 79 79 11
Width: 810
VWidth: 0
Flags: W
HStem: -11 64<303.047 528.191> 678 64<385.686 610.844>
LayerCount: 2
Fore
SplineSet
149 366 m 4
 125 193 243 53 413 53 c 4
 583 53 740 193 764 366 c 4
 788 539 671 678 501 678 c 4
 331 678 173 539 149 366 c 4
80 366 m 0
 109 574 302 742 510 742 c 0
 718 742 862 574 833 366 c 0
 804 158 612 -11 404 -11 c 0
 196 -11 51 158 80 366 c 0
EndSplineSet
EndChar

StartChar: T
Encoding: 84 84 12
Width: 587
VWidth: 0
Flags: HW
LayerCount: 2
Fore
SplineSet
105 676 m 1xd0
 112 730 l 1
 680 730 l 1
 673 676 l 1
 105 676 l 1xd0
264 0 m 1
 365 719 l 1
 425 719 l 1xb0
 324 0 l 1
 264 0 l 1
EndSplineSet
EndChar

StartChar: A
Encoding: 65 65 13
Width: 628
VWidth: 0
Flags: W
HStem: 0 21G<10 88.702 544.907 618> 234 58<186 516> 737 20G<409.168 425.231>
VStem: 550 68<0 26.7626>
LayerCount: 2
Fore
SplineSet
10 0 m 1
 420 757 l 1
 421 641 l 5
 78 0 l 1
 10 0 l 1
177 234 m 1
 186 292 l 1
 525 292 l 1
 516 234 l 1
 177 234 l 1
550 0 m 1
 386 644 l 5
 420 757 l 1
 618 0 l 1
 550 0 l 1
EndSplineSet
EndChar

StartChar: c
Encoding: 99 99 14
Width: 536
VWidth: 0
Flags: W
HStem: -12 60<227.008 428.973> 479 59<286.885 481.283>
LayerCount: 2
Fore
SplineSet
136 263 m 4
 120 148 198 48 315 48 c 4
 371 48 433 65 478 95 c 5
 468 24 l 5
 417 0 361 -12 307 -12 c 4
 156 -12 49 112 70 263 c 4
 91 414 233 538 384 538 c 4
 438 538 490 526 535 502 c 5
 525 431 l 5
 488 461 432 479 376 479 c 4
 259 479 152 378 136 263 c 4
EndSplineSet
EndChar

StartChar: C
Encoding: 67 67 15
Width: 680
VWidth: 0
Flags: W
HStem: -11 64<302.159 535.797> 678 64<384.925 624.06>
LayerCount: 2
Fore
SplineSet
149 366 m 0
 124 190 239 53 413 53 c 0
 490 53 567 75 630 119 c 5
 620 47 l 1
 552 10 478 -11 404 -11 c 0
 196 -11 51 158 80 366 c 0
 109 574 302 742 510 742 c 0
 584 742 652 721 710 684 c 1
 700 612 l 1
 649 656 578 678 501 678 c 0
 327 678 174 542 149 366 c 0
EndSplineSet
EndChar

StartChar: G
Encoding: 71 71 16
Width: 818
VWidth: 0
Flags: HW
LayerCount: 2
Fore
SplineSet
478 326 m 5
 486 384 l 1
 813 384 l 1
 805 326 l 5
 478 326 l 5
149 366 m 0
 124 190 239 53 413 53 c 0
 587 53 728 190 753 366 c 0
 754 372 754 378 755 384 c 1
 824 384 l 1
 823 378 823 372 822 366 c 0
 793 158 612 -11 404 -11 c 0
 196 -11 51 158 80 366 c 0
 109 574 302 742 510 742 c 0
 610 742 695 703 753 639 c 1
 707 591 l 1
 663 639 589 678 501 678 c 0
 327 678 174 542 149 366 c 0
EndSplineSet
EndChar

StartChar: J
Encoding: 74 74 17
Width: 501
VWidth: 0
Flags: HW
LayerCount: 2
Fore
SplineSet
395 238 m 1
 464 730 l 1
 528 730 l 1
 459 238 l 1
 395 238 l 1
395 238 m 1
 459 238 l 1
 440 101 361 -11 197 -11 c 0
 69 -11 5 54 -10 134 c 1
 47 159 l 1
 64 103 98 47 205 47 c 4
 336 47 382 144 395 238 c 1
EndSplineSet
EndChar

StartChar: b
Encoding: 98 98 18
Width: 681
VWidth: 0
Flags: HW
LayerCount: 2
Fore
SplineSet
169 263 m 0xba
 152 145 232 48 348 48 c 0
 464 48 570 145 587 263 c 0
 604 381 525 479 409 479 c 0
 293 479 186 381 169 263 c 0xba
66 0 m 1x7a
 192 894 l 5
 258 894 l 5x7a
 132 0 l 1x76
 66 0 l 1x7a
135 263 m 0xb6
 152 384 256 538 437 538 c 0
 568 538 674 414 653 263 c 0
 632 112 491 -12 360 -12 c 0
 179 -12 118 142 135 263 c 0xb6
EndSplineSet
EndChar

StartChar: u
Encoding: 117 117 19
Width: 639
VWidth: 0
Flags: W
HStem: -12 60<209.948 371.098> 0 21G<466 534.776> 506 20G<137.214 205 537.186 605>
DStem2: 95 203 160 203 0.137986 0.990434<-74.4297 326.12> 466 0 532 0 0.139313 0.990248<271.72 531.18>
LayerCount: 2
Fore
SplineSet
605 526 m 1x60
 532 0 l 1
 466 0 l 1
 540 526 l 1
 605 526 l 1x60
160 203 m 1
 95 203 l 1
 140 526 l 1
 205 526 l 1
 160 203 l 1
160 203 m 1
 148 118 188 48 287 48 c 0
 404 48 489 160 503 263 c 1
 547 263 l 1
 530 141 443 -12 279 -12 c 0xa0
 133 -12 76 69 95 203 c 1
 160 203 l 1
EndSplineSet
EndChar

StartChar: d
Encoding: 100 100 20
Width: 681
VWidth: 0
Flags: HW
LayerCount: 2
Fore
SplineSet
588 264 m 4xba
 571 143 468 -11 287 -11 c 4
 156 -11 49 113 70 264 c 4
 91 415 233 539 364 539 c 4
 545 539 605 385 588 264 c 4xba
554 263 m 4xbc
 571 381 492 479 376 479 c 4
 260 479 153 381 136 263 c 4
 119 145 199 48 315 48 c 4
 431 48 537 145 554 263 c 4xbc
583 0 m 5x7c
 517 0 l 5x7a
 643 894 l 5
 709 894 l 5
 583 0 l 5x7c
EndSplineSet
EndChar

StartChar: e
Encoding: 101 101 21
Width: 625
VWidth: 0
Flags: W
HStem: -12 60<226.333 415.132> 239 59<121 128 129 552> 239 24<70 128> 479 59<282.967 457.012>
LayerCount: 2
Fore
SplineSet
129 263 m 1xb0
 113 148 198 48 315 48 c 0
 379 48 460 81 508 127 c 1
 535 75 l 1
 471 22 387 -12 307 -12 c 0
 156 -12 49 112 70 263 c 1
 129 263 l 1xb0
70 263 m 0
 91 414 233 538 384 538 c 0
 535 538 629 414 608 263 c 0
 607 255 606 247 604 239 c 1xb0
 537 239 l 1xd0
 539 247 540 255 541 263 c 0
 557 378 493 479 376 479 c 0
 259 479 145 378 129 263 c 0xb0
 128 255 128 247 128 239 c 1xd0
 68 239 l 1
 68 247 69 255 70 263 c 0
113 239 m 1
 121 298 l 5
 560 298 l 5
 552 239 l 1xd0
 113 239 l 1
EndSplineSet
EndChar

StartChar: a
Encoding: 97 97 22
Width: 681
VWidth: 0
Flags: W
HStem: -11 59<227.387 396.695> 0 21G<517 585.814> 479 60<282.99 461.735> 506 20G<588.186 657>
DStem2: 517 0 583 0 0.139313 0.990248<9.19463 265.59 271.317 531.18>
LayerCount: 2
Fore
SplineSet
588 264 m 0xa0
 571 143 468 -11 287 -11 c 0
 156 -11 49 113 70 264 c 0
 91 415 233 539 364 539 c 0
 545 539 605 385 588 264 c 0xa0
554 263 m 0
 571 381 492 479 376 479 c 0
 260 479 153 381 136 263 c 0
 119 145 199 48 315 48 c 0
 431 48 537 145 554 263 c 0
583 0 m 1x50
 517 0 l 1
 591 526 l 5
 657 526 l 5
 583 0 l 1x50
EndSplineSet
EndChar

StartChar: h
Encoding: 104 104 23
Width: 640
VWidth: 0
Flags: HW
LayerCount: 2
Fore
SplineSet
512 323 m 1xe4
 578 323 l 1
 532 0 l 1
 466 0 l 1
 512 323 l 1xe4
66 0 m 1xf4
 192 894 l 5
 258 894 l 5
 132 0 l 1
 66 0 l 1xf4
512 323 m 1
 524 408 483 479 384 479 c 0
 267 479 185 378 169 263 c 1xf4
 135 263 l 1xec
 152 385 241 538 402 538 c 0
 526 538 597 457 578 323 c 1
 512 323 l 1
EndSplineSet
EndChar

StartChar: m
Encoding: 109 109 24
Width: 921
VWidth: 0
Flags: HW
LayerCount: 2
Fore
SplineSet
793 323 m 1xc080
 859 323 l 1
 814 0 l 1
 748 0 l 1
 793 323 l 1xc080
793 323 m 1
 803 396 792 479 695 479 c 0
 580 479 523 366 509 263 c 1xe280
 465 263 l 1
 482 385 546 538 713 538 c 4xe180
 822 538 878 457 859 323 c 1
 793 323 l 1
66 0 m 1xd880
 140 526 l 1
 206 526 l 1
 132 0 l 1
 66 0 l 1xd880
452 323 m 1xc280
 518 323 l 1
 472 0 l 1
 406 0 l 1
 452 323 l 1xc280
452 323 m 1
 462 396 452 479 355 479 c 0
 240 479 183 366 169 263 c 1xea80
 135 263 l 5
 149 364 206 538 373 538 c 4xe480
 482 538 537 457 518 323 c 1
 452 323 l 1
EndSplineSet
EndChar

StartChar: n
Encoding: 110 110 25
Width: 640
VWidth: 0
Flags: W
HStem: 0 21G<66 134.814 466 534.848> 479 59<303.239 462.023> 506 20G<137.186 206>
DStem2: 466 0 532 0 0.140992 0.990011<9.30549 409.962>
LayerCount: 2
Fore
SplineSet
66 0 m 1xa0
 140 526 l 1
 206 526 l 1
 132 0 l 1
 66 0 l 1xa0
512 323 m 1
 578 323 l 1
 532 0 l 1
 466 0 l 1
 512 323 l 1
512 323 m 1
 524 408 483 479 384 479 c 0
 267 479 183 366 169 263 c 1
 145 263 l 5
 162 385 218 538 412 538 c 0xc0
 538 538 597 457 578 323 c 1
 512 323 l 1
EndSplineSet
EndChar

StartChar: y
Encoding: 121 121 26
Width: 483
VWidth: 0
Flags: W
HStem: 506 20G<74 143.734 474.143 557>
VStem: 74 64<501.583 526>
LayerCount: 2
Fore
SplineSet
4 -287 m 1
 486 526 l 1
 557 526 l 1
 75 -287 l 1
 4 -287 l 1
211 48 m 1
 74 526 l 1
 138 526 l 1
 265 83 l 1
 211 48 l 1
EndSplineSet
EndChar

StartChar: q
Encoding: 113 113 27
Width: 675
VWidth: 0
Flags: HW
LayerCount: 2
Fore
SplineSet
584 264 m 0xd4
 567 143 463 -11 282 -11 c 0
 151 -11 45 113 66 264 c 0
 87 415 228 539 359 539 c 0
 540 539 601 385 584 264 c 0xd4
549 263 m 0xd8
 566 381 487 479 371 479 c 0
 255 479 148 381 131 263 c 0
 114 145 194 48 310 48 c 0
 426 48 532 145 549 263 c 0xd8
652 526 m 1xb8
 540 -275 l 1
 474 -275 l 1
 586 526 l 1
 652 526 l 1xb8
EndSplineSet
EndChar

StartChar: p
Encoding: 112 112 28
Width: 675
VWidth: 0
Flags: HW
LayerCount: 2
Fore
SplineSet
169 263 m 4xd4
 152 145 232 48 348 48 c 4
 464 48 570 145 587 263 c 4
 604 381 525 479 409 479 c 4
 293 479 186 381 169 263 c 4xd4
135 263 m 4xcc
 152 384 256 538 437 538 c 4
 568 538 674 414 653 263 c 4
 632 112 491 -12 360 -12 c 4
 179 -12 118 142 135 263 c 4xcc
140 526 m 1xb4
 206 526 l 1
 94 -275 l 1
 28 -275 l 1
 140 526 l 1xb4
EndSplineSet
EndChar

StartChar: j
Encoding: 106 106 29
Width: 259
VWidth: 0
Flags: HW
LayerCount: 2
Fore
SplineSet
203 763 m 0xf0
 207 791 232 812 260 812 c 0
 288 812 307 791 303 763 c 0
 299 735 274 713 246 713 c 0
 218 713 199 735 203 763 c 0xf0
-8 -227 m 5
 -17 -287 l 1
 -83 -287 -107 -250 -107 -250 c 1
 -99 -192 l 5
 -99 -192 -64 -227 -8 -227 c 5
-8 -227 m 5
 62 -227 88 -181 100 -96 c 5
 164 -96 l 1xe8
 145 -230 87 -287 -17 -287 c 1
 -8 -227 l 5
100 -96 m 1
 188 526 l 1
 252 526 l 1
 164 -96 l 1
 100 -96 l 1
EndSplineSet
EndChar

StartChar: L
Encoding: 76 76 30
Width: 514
VWidth: 0
Flags: HW
LayerCount: 2
Fore
SplineSet
126 0 m 1xd0
 135 58 l 5
 513 58 l 5
 504 0 l 1
 126 0 l 1xd0
66 0 m 1xe0
 169 730 l 1
 233 730 l 1xe0
 130 0 l 1xd0
 66 0 l 1xe0
EndSplineSet
EndChar

StartChar: D
Encoding: 68 68 31
Width: 684
VWidth: 0
Flags: HW
LayerCount: 2
Fore
SplineSet
229 730 m 1xd8
 372 730 l 1
 363 667 l 1xe8
 220 667 l 1
 229 730 l 1xd8
126 0 m 1xd8
 135 63 l 1xd8
 278 63 l 1
 270 0 l 1xe8
 126 0 l 1xd8
66 0 m 1xe8
 169 730 l 1xe8
 233 730 l 1
 130 0 l 1xd8
 66 0 l 1xe8
363 667 m 1
 372 730 l 1
 580 730 727 574 698 366 c 0
 669 158 478 0 270 0 c 1
 278 63 l 5
 450 63 605 192 629 366 c 4
 653 540 535 667 363 667 c 1
EndSplineSet
EndChar

StartChar: R
Encoding: 82 82 32
Width: 566
VWidth: 0
Flags: HW
LayerCount: 2
Fore
SplineSet
380 730 m 1xd1
 518 730 596 642 577 504 c 0
 558 366 455 280 317 280 c 1
 321 338 l 1
 423 338 499 397 514 504 c 0
 529 611 470 672 368 672 c 1
 380 730 l 1xd1
149 280 m 1xd5
 157 338 l 1
 321 338 l 1
 317 280 l 1
 149 280 l 1xd5
66 0 m 1x99
 169 730 l 1x99
 233 730 l 1x93
 130 0 l 1
 66 0 l 1x99
221 672 m 1x93
 229 730 l 1
 380 730 l 1
 368 672 l 1
 221 672 l 1x93
456 0 m 5
 276 324 l 5
 349 324 l 1xb1
 528 0 l 1
 456 0 l 5
EndSplineSet
EndChar

StartChar: V
Encoding: 86 86 33
Width: 668
VWidth: 0
Flags: HW
LayerCount: 2
Fore
SplineSet
761 730 m 1
 330 -27 l 1
 328 94 l 5
 690 730 l 5
 761 730 l 1
183 730 m 1
 367 91 l 1
 330 -27 l 1
 112 730 l 1
 183 730 l 1
EndSplineSet
EndChar

StartChar: f
Encoding: 102 102 34
Width: 365
VWidth: 0
Flags: HW
LayerCount: 2
Fore
SplineSet
84 466 m 1
 93 526 l 1
 421 526 l 1
 412 466 l 1
 84 466 l 1
121 0 m 1
 221 715 l 5
 286 715 l 5
 186 0 l 1
 121 0 l 1
395 846 m 5
 403 906 l 5
 469 906 494 870 494 870 c 5
 486 812 l 5
 486 812 451 846 395 846 c 5
395 846 m 5
 325 846 298 800 286 715 c 5
 221 715 l 5
 240 849 299 906 403 906 c 5
 395 846 l 5
EndSplineSet
EndChar

StartChar: r
Encoding: 114 114 35
Width: 426
VWidth: 0
Flags: HW
LayerCount: 2
Fore
SplineSet
473 479 m 5xc8
 443 427 l 5
 443 427 400 479 323 479 c 4
 241 479 187 390 173 287 c 1xd0
 149 287 l 1
 166 409 203 538 351 538 c 4
 437 538 473 479 473 479 c 5xc8
206 526 m 1xb0
 132 0 l 1
 66 0 l 1
 140 526 l 1
 206 526 l 1xb0
EndSplineSet
EndChar

StartChar: g
Encoding: 103 103 36
Width: 651
VWidth: 0
Flags: HW
LayerCount: 2
Fore
SplineSet
487 -12 m 1xd3
 553 -12 l 1
 532 -163 432 -287 251 -287 c 0
 110 -287 40 -215 23 -127 c 1
 82 -99 l 1
 101 -161 135 -227 260 -227 c 0
 395 -227 471 -127 487 -12 c 1xd3
553 -12 m 1
 487 -12 l 1
 562 526 l 1
 628 526 l 1xd7
 553 -12 l 1
528 281 m 0
 544 396 476 479 359 479 c 0x9b
 242 479 149 396 133 281 c 0
 117 166 186 84 303 84 c 0
 420 84 512 166 528 281 c 0
562 281 m 4x9a80
 545 160 456 24 275 24 c 4
 144 24 47 130 68 281 c 0
 89 432 216 538 347 538 c 4
 528 538 579 402 562 281 c 4x9a80
EndSplineSet
EndChar

StartChar: period
Encoding: 46 46 37
Width: 234
VWidth: 0
Flags: HW
LayerCount: 2
Fore
SplineSet
77 35 m 4
 81 60 103 80 128 80 c 4
 153 80 172 60 168 35 c 4
 164 10 141 -11 116 -11 c 4
 91 -11 73 10 77 35 c 4
EndSplineSet
EndChar

StartChar: s
Encoding: 115 115 38
Width: 494
VWidth: 0
Flags: HW
LayerCount: 2
Fore
SplineSet
107 388 m 1
 120 480 215 538 331 538 c 0
 421 538 497 477 497 477 c 1
 462 419 l 5
 462 419 409 477 317 477 c 0
 242 477 181 443 174 394 c 1
 107 388 l 1
467 146 m 1
 452 40 364 -12 248 -12 c 0
 110 -12 40 84 40 84 c 1
 85 132 l 1
 85 132 152 46 250 46 c 4
 327 46 392 78 402 146 c 1
 467 146 l 1
273 247 m 0
 199 260 92 282 107 388 c 1
 174 394 l 1
 165 329 238 320 301 306 c 0
 383 288 483 263 467 146 c 5
 402 146 l 5
 412 216 336 236 273 247 c 0
EndSplineSet
EndChar

StartChar: k
Encoding: 107 107 39
Width: 498
VWidth: 0
Flags: HW
LayerCount: 2
Fore
SplineSet
382 0 m 1
 134 287 l 1
 231 287 l 1
 478 0 l 1
 382 0 l 1
136 287 m 1
 432 526 l 1
 527 526 l 1
 231 287 l 1
 136 287 l 1
66 0 m 1
 192 894 l 5
 258 894 l 5
 132 0 l 1
 66 0 l 1
EndSplineSet
EndChar

StartChar: v
Encoding: 118 118 40
Width: 558
VWidth: 0
Flags: HW
LayerCount: 2
Fore
SplineSet
276 -30 m 1
 269 124 l 1
 294 118 l 5
 552 526 l 1
 628 526 l 1
 276 -30 l 1
276 -30 m 1
 79 526 l 1
 155 526 l 1
 297 120 l 1
 325 127 l 1
 276 -30 l 1
EndSplineSet
EndChar

StartChar: w
Encoding: 119 119 41
Width: 875
VWidth: 0
Flags: HW
LayerCount: 2
Fore
SplineSet
623 -30 m 1
 615 113 l 1
 633 113 l 5
 858 526 l 5
 934 526 l 1
 623 -30 l 1
623 -30 m 1
 470 454 l 1
 458 454 l 1
 514 556 l 1
 649 91 l 1
 667 91 l 1
 623 -30 l 1
238 -30 m 1
 227 88 l 1
 244 88 l 1
 514 556 l 1
 532 442 l 1
 520 442 l 1
 238 -30 l 1
238 -30 m 1
 83 526 l 1
 159 526 l 1
 268 115 l 1
 286 115 l 1
 238 -30 l 1
EndSplineSet
EndChar

StartChar: W
Encoding: 87 87 42
Width: 891
VWidth: 0
Flags: HW
LayerCount: 2
Fore
SplineSet
552 757 m 5
 684 115 l 5
 648 -27 l 5
 519 604 l 5
 552 757 l 5
984 730 m 5
 648 -27 l 5
 655 124 l 5
 924 730 l 5
 984 730 l 5
181 730 m 5
 271 121 l 5
 226 -27 l 5
 112 730 l 5
 181 730 l 5
540 601 m 5
 226 -27 l 5
 232 118 l 5
 552 757 l 5
 540 601 l 5
EndSplineSet
EndChar

StartChar: x
Encoding: 120 120 43
Width: 483
VWidth: 0
Flags: W
HStem: 0 21G<0 99.9904 387.56 483> 506 20G<74 168.44 456.01 557>
LayerCount: 2
Fore
SplineSet
270 209 m 1
 82 0 l 1
 0 0 l 1
 241 263 l 1
 74 526 l 1
 156 526 l 1
 286 317 l 1
 474 526 l 1
 557 526 l 1
 316 263 l 5
 483 0 l 1
 400 0 l 1
 270 209 l 1
EndSplineSet
EndChar

StartChar: z
Encoding: 122 122 44
Width: 502
VWidth: 0
Flags: HW
LayerCount: 2
Fore
SplineSet
104 466 m 1
 112 526 l 1
 531 526 l 1
 464 466 l 1
 104 466 l 1
38 0 m 1
 107 60 l 1
 466 60 l 1
 458 0 l 1
 38 0 l 1
10 0 m 1
 485 526 l 1
 561 526 l 1
 86 0 l 5
 10 0 l 1
EndSplineSet
EndChar

StartChar: P
Encoding: 80 80 45
Width: 503
VWidth: 0
Flags: HW
LayerCount: 2
Fore
SplineSet
348 730 m 1xe2
 486 730 564 642 545 504 c 0
 526 366 423 280 285 280 c 1
 289 338 l 5
 391 338 466 397 481 504 c 0
 496 611 438 672 336 672 c 5
 348 730 l 1xe2
149 280 m 1xea
 157 338 l 1
 289 338 l 5
 285 280 l 1
 149 280 l 1xea
66 0 m 1xf2
 169 730 l 1xf2
 233 730 l 1xe6
 130 0 l 1
 66 0 l 1xf2
221 672 m 1xe6
 229 730 l 1
 348 730 l 1
 336 672 l 5
 221 672 l 1xe6
EndSplineSet
EndChar

StartChar: exclam
Encoding: 33 33 46
Width: 234
VWidth: 0
Flags: HW
LayerCount: 2
Fore
SplineSet
77 35 m 4xc0
 81 60 103 80 128 80 c 4
 153 80 172 60 168 35 c 4
 164 10 141 -11 116 -11 c 4
 91 -11 73 10 77 35 c 4xc0
139 281 m 5x90
 197 811 l 5
 266 811 l 5xa0
 176 281 l 5
 139 281 l 5x90
EndSplineSet
EndChar

StartChar: B
Encoding: 66 66 47
Width: 541
VWidth: 0
Flags: HW
LayerCount: 2
Fore
SplineSet
358 730 m 1xde
 466 730 543 647 528 539 c 0
 513 432 414 358 306 358 c 1xbe
 312 403 l 1
 390 403 452 461 463 539 c 4
 474 617 428 672 350 672 c 1
 358 730 l 1xde
221 672 m 1
 229 730 l 1
 358 730 l 1
 350 672 l 1
 221 672 l 1
175 345 m 1xdc
 183 403 l 1
 345 403 l 1
 337 345 l 1
 175 345 l 1xdc
66 0 m 1
 169 730 l 1
 233 730 l 1
 130 0 l 1
 66 0 l 1
126 0 m 1
 135 58 l 1
 297 58 l 1
 288 0 l 1
 126 0 l 1
343 389 m 1xbd
 457 389 538 313 522 200 c 0
 506 86 402 0 288 0 c 1
 297 58 l 1
 380 58 445 117 457 200 c 0
 469 283 420 345 337 345 c 1xdd
 343 389 l 1xbd
EndSplineSet
EndChar

StartChar: S
Encoding: 83 83 48
Width: 525
VWidth: 0
Flags: HW
LayerCount: 2
Fore
SplineSet
159 546 m 1xbc
 174 656 286 741 413 741 c 0
 543 741 602 664 602 664 c 1
 571 606 l 1
 571 606 519 679 409 679 c 0
 308 679 237 615 228 549 c 1xdc
 159 546 l 1xbc
552 189 m 1
 537 79 427 -11 290 -11 c 0
 133 -11 52 98 52 98 c 1
 97 153 l 1
 97 153 168 55 300 55 c 0
 403 55 474 123 483 189 c 1
 552 189 l 1
340 339 m 0
 235 368 143 434 159 546 c 1xbc
 228 549 l 1
 218 475 270 429 370 402 c 0
 482 372 568 306 552 189 c 1
 483 189 l 1
 494 266 437 312 340 339 c 0
EndSplineSet
EndChar

StartChar: Q
Encoding: 81 81 49
Width: 826
VWidth: 0
Flags: HW
LayerCount: 2
Fore
SplineSet
149 366 m 0xb8
 125 193 243 53 413 53 c 0
 583 53 740 193 764 366 c 0
 788 539 671 678 501 678 c 0
 331 678 173 539 149 366 c 0xb8
720 0 m 5x78
 472 303 l 5
 549 303 l 1
 798 0 l 1
 720 0 l 5x78
80 366 m 0
 109 574 302 742 510 742 c 0
 718 742 862 574 833 366 c 0
 804 158 612 -11 404 -11 c 0xb8
 196 -11 51 158 80 366 c 0
EndSplineSet
EndChar

StartChar: Z
Encoding: 90 90 50
Width: 645
VWidth: 0
Flags: HW
LayerCount: 2
Fore
SplineSet
131 672 m 1
 139 730 l 1
 702 730 l 1
 638 672 l 5
 131 672 l 1
36 0 m 1
 102 58 l 1
 608 58 l 1
 600 0 l 1
 36 0 l 1
10 0 m 1
 652 730 l 5
 729 730 l 1
 88 0 l 1
 10 0 l 1
EndSplineSet
EndChar

StartChar: U
Encoding: 85 85 51
Width: 674
VWidth: 0
Flags: W
HStem: -11 61<257.143 436.39> 710 20G<166.209 233 643.203 710>
DStem2: 103 257 167 258 0.138196 0.990405<-78.0332 477.582> 580 258 644 257 0.138196 0.990405<-93.4986 476.592>
LayerCount: 2
Fore
SplineSet
580 258 m 1
 646 730 l 1
 710 730 l 1
 644 257 l 1
 580 258 l 1
103 257 m 1
 169 730 l 1
 233 730 l 1
 167 258 l 1
 103 257 l 1
644 257 m 1
 623 109 483 -11 335 -11 c 0
 187 -11 82 109 103 257 c 1
 167 258 l 1
 151 144 230 50 344 50 c 0
 458 50 564 144 580 258 c 1
 644 257 l 1
EndSplineSet
EndChar

StartChar: Y
Encoding: 89 89 52
Width: 619
VWidth: 0
Flags: W
HStem: 0 21G<278 342.833> 710 20G<112 195.351 622.919 712>
VStem: 278 62<0 49.4118>
LayerCount: 2
Fore
SplineSet
278 0 m 1
 328 360 l 1
 391 360 l 1
 340 0 l 1
 278 0 l 1
342 240 m 5
 112 730 l 1
 186 730 l 1
 359 360 l 1
 638 730 l 1
 712 730 l 1
 342 240 l 5
EndSplineSet
EndChar

StartChar: X
Encoding: 88 88 53
Width: 639
VWidth: 0
Flags: HW
LayerCount: 2
Fore
SplineSet
630 0 m 1
 552 0 l 5
 132 730 l 1
 209 730 l 1
 630 0 l 1
712 730 m 1
 86 0 l 1
 10 0 l 1
 635 730 l 1
 712 730 l 1
EndSplineSet
EndChar

StartChar: K
Encoding: 75 75 54
Width: 529
VWidth: 0
Flags: HW
LayerCount: 2
Fore
SplineSet
172 351 m 1
 554 730 l 5
 632 730 l 1
 251 351 l 1
 172 351 l 1
445 0 m 5
 167 351 l 1
 251 351 l 1
 529 0 l 1
 445 0 l 5
76 0 m 1
 179 730 l 1
 243 730 l 1
 140 0 l 1
 76 0 l 1
EndSplineSet
EndChar

StartChar: comma
Encoding: 44 44 55
Width: 257
VWidth: 0
Flags: W
HStem: -110 212
VStem: 5 175
LayerCount: 2
Fore
SplineSet
110 102 m 1
 180 102 l 5
 41 -110 l 5
 5 -110 l 1
 110 102 l 1
EndSplineSet
EndChar

StartChar: quotedbl
Encoding: 34 34 56
Width: 239
VWidth: 0
Flags: HW
LayerCount: 2
Fore
SplineSet
270 811 m 1
 328 811 l 5
 282 599 l 5
 256 599 l 1
 270 811 l 1
140 811 m 1
 198 811 l 1
 152 599 l 1
 126 599 l 1
 140 811 l 1
EndSplineSet
EndChar

StartChar: quotesingle
Encoding: 39 39 57
Width: 108
VWidth: 0
Flags: HW
LayerCount: 2
Fore
SplineSet
134 811 m 1
 203 811 l 1
 155 599 l 1
 119 599 l 1
 134 811 l 1
EndSplineSet
EndChar

StartChar: colon
Encoding: 58 58 58
Width: 234
VWidth: 0
Flags: HW
LayerCount: 2
Fore
SplineSet
133 430 m 0
 137 455 159 476 184 476 c 0
 209 476 228 455 224 430 c 0
 220 405 196 385 171 385 c 0
 146 385 129 405 133 430 c 0
87 106 m 0
 91 131 113 151 138 151 c 0
 163 151 182 131 178 106 c 0
 174 81 151 61 126 61 c 0
 101 61 83 81 87 106 c 0
EndSplineSet
EndChar

StartChar: semicolon
Encoding: 59 59 59
Width: 237
VWidth: 0
Flags: HW
LayerCount: 2
Fore
SplineSet
135 430 m 0
 139 455 162 476 187 476 c 0
 212 476 230 455 226 430 c 0
 222 405 199 385 174 385 c 0
 149 385 131 405 135 430 c 0
119 162 m 1
 189 162 l 1
 50 -50 l 1
 14 -50 l 1
 119 162 l 1
EndSplineSet
EndChar

StartChar: dollar
Encoding: 36 36 60
Width: 568
VWidth: 0
Flags: HW
LayerCount: 2
Fore
SplineSet
162 546 m 1xbe
 177 656 289 741 416 741 c 0
 546 741 605 664 605 664 c 1
 575 616 l 1
 575 616 523 685 413 685 c 0
 312 685 236 615 227 549 c 1xde
 162 546 l 1xbe
554 189 m 1
 539 79 430 -11 293 -11 c 0
 136 -11 55 98 55 98 c 1
 99 149 l 1
 99 149 170 51 302 51 c 0
 405 51 481 123 490 189 c 1
 554 189 l 1
343 342 m 0
 238 371 146 434 162 546 c 1xbe
 227 549 l 1
 216 473 273 426 373 399 c 0
 485 369 570 306 554 189 c 1
 490 189 l 1
 501 266 440 315 343 342 c 0
264 -108 m 1
 393 811 l 1
 442 811 l 1
 313 -108 l 1
 264 -108 l 1
EndSplineSet
EndChar

StartChar: zero
Encoding: 48 48 61
Width: 596
VWidth: 0
Flags: HW
LayerCount: 2
Fore
SplineSet
147 366 m 0
 130 244 153 49 305 49 c 4
 457 49 537 244 554 366 c 4
 571 488 546 682 394 682 c 4
 242 682 164 488 147 366 c 0
82 366 m 0
 108 552 217 742 403 742 c 0
 589 742 645 552 619 366 c 0
 593 180 483 -11 297 -11 c 0
 111 -11 56 180 82 366 c 0
EndSplineSet
EndChar

StartChar: one
Encoding: 49 49 62
Width: 579
VWidth: 0
Flags: HW
LayerCount: 2
Fore
SplineSet
268 589 m 1
 276 643 l 1
 485 746 l 1
 474 665 l 1
 268 589 l 1
320 0 m 1
 413 660 l 5
 485 746 l 1
 380 0 l 1
 320 0 l 1
EndSplineSet
EndChar

StartChar: two
Encoding: 50 50 63
Width: 595
VWidth: 1081
Flags: HW
LayerCount: 2
Fore
SplineSet
401 742 m 1
 542 742 632 662 611 510 c 0
 600 430 539 355 484 306 c 2
 202 59 l 1
 569 59 l 1
 561 0 l 1
 55 0 l 1
 458 368 l 6
 496 403 539 455 547 510 c 0
 563 622 493 677 392 677 c 1
 401 742 l 1
392 677 m 1
 283 677 156 552 156 552 c 1
 168 637 l 1
 168 637 273 742 401 742 c 1
 392 677 l 1
EndSplineSet
EndChar

StartChar: percent
Encoding: 37 37 64
Width: 1126
VWidth: 0
Flags: HW
LayerCount: 2
Fore
SplineSet
688 188 m 0xa780
 675 99 735 28 820 28 c 0
 905 28 985 99 998 188 c 0
 1011 277 950 348 865 348 c 0
 780 348 701 277 688 188 c 0xa780
223 542 m 0
 210 453 270 382 355 382 c 0
 440 382 520 453 533 542 c 0
 546 631 485 702 400 702 c 0x3780
 315 702 236 631 223 542 c 0
644 188 m 0
 659 298 761 387 871 387 c 0
 981 387 1057 298 1042 188 c 0
 1027 78 925 -11 815 -11 c 0xa780
 705 -11 629 78 644 188 c 0
244 0 m 1x6f80
 919 730 l 1
 978 730 l 1
 303 0 l 5
 244 0 l 1x6f80
180 542 m 0
 195 652 297 741 407 741 c 0x3780
 517 741 593 652 578 542 c 0
 563 432 461 343 351 343 c 0
 241 343 165 432 180 542 c 0
EndSplineSet
EndChar

StartChar: three
Encoding: 51 51 65
Width: 591
VWidth: 0
Flags: HW
LayerCount: 2
Fore
SplineSet
207 676 m 1
 214 730 l 1
 614 730 l 1
 543 676 l 1
 207 676 l 1
299 443 m 1
 445 443 539 346 522 222 c 0
 503 87 392 -11 235 -11 c 1
 242 42 l 1
 347 42 448 112 463 222 c 4
 479 338 376 401 260 401 c 5
 299 443 l 1
239 401 m 1
 550 730 l 1
 614 730 l 1
 303 401 l 1
 239 401 l 1
235 -12 m 1
 186 -12 128 -1 88 21 c 1
 97 90 l 1
 129 57 191 42 242 42 c 1
 235 -12 l 1
EndSplineSet
EndChar

StartChar: four
Encoding: 52 52 66
Width: 595
VWidth: 0
Flags: HW
LayerCount: 2
Fore
SplineSet
65 173 m 1
 160 227 l 1
 587 227 l 1
 579 173 l 1
 65 173 l 1
414 0 m 1
 507 663 l 5
 569 674 l 5
 474 0 l 1
 414 0 l 1
569 675 m 1
 179 216 l 1
 65 173 l 1
 580 757 l 1
 569 675 l 1
EndSplineSet
EndChar

StartChar: five
Encoding: 53 53 67
Width: 592
VWidth: 0
Flags: HW
LayerCount: 2
Fore
SplineSet
245 730 m 1
 303 730 l 1
 201 389 l 1
 174 366 l 1
 143 389 l 1
 245 730 l 1
238 676 m 1
 245 730 l 1
 585 730 l 1
 578 676 l 1
 238 676 l 1
181 358 m 5
 144 388 l 1
 144 389 l 1
 144 389 242 443 334 443 c 0
 493 443 570 353 551 216 c 0
 532 79 408 -11 249 -11 c 0
 189 -11 116 6 76 28 c 1
 85 96 l 1
 117 63 195 43 257 43 c 0
 374 43 477 112 492 216 c 4
 508 331 433 389 316 389 c 4
 267 389 217 374 181 358 c 5
EndSplineSet
EndChar

StartChar: six
Encoding: 54 54 68
Width: 592
VWidth: 0
Flags: HW
LayerCount: 2
Fore
SplineSet
156 216 m 4
 143 121 208 43 302 43 c 4
 396 43 485 121 498 216 c 4
 511 311 445 389 351 389 c 4
 257 389 169 311 156 216 c 4
394 730 m 5
 452 730 l 5
 243 397 l 5
 274 420 327 433 368 433 c 4
 483 433 572 341 554 216 c 4
 536 91 420 -11 295 -11 c 4
 170 -11 82 91 100 216 c 4
 105 254 122 293 141 322 c 5
 394 730 l 5
EndSplineSet
EndChar

StartChar: nine
Encoding: 57 57 69
Width: 592
VWidth: 0
Flags: HW
LayerCount: 2
Fore
SplineSet
540 514 m 0
 553 609 487 687 393 687 c 0
 299 687 211 609 198 514 c 0
 185 419 250 341 344 341 c 0
 438 341 527 419 540 514 c 0
302 0 m 1
 243 0 l 1
 453 333 l 1
 422 310 369 297 328 297 c 0
 213 297 124 389 142 514 c 0
 160 639 275 741 400 741 c 0
 525 741 614 639 596 514 c 0
 591 476 575 437 556 408 c 1
 302 0 l 1
EndSplineSet
EndChar

StartChar: eight
Encoding: 56 56 70
Width: 592
VWidth: 0
Flags: HW
LayerCount: 2
Fore
SplineSet
183 554 m 0xec
 198 660 295 745 401 745 c 0
 507 745 581 660 566 554 c 0
 552 453 434 384 350 384 c 0
 266 384 169 453 183 554 c 0xec
243 554 m 4
 233 483 284 422 355 422 c 4
 426 422 496 483 506 554 c 4
 516 625 463 686 392 686 c 0
 321 686 253 625 243 554 c 4
100 222 m 0xf2
 117 342 240 422 355 422 c 0
 470 422 571 336 554 216 c 0
 536 91 419 -11 294 -11 c 0
 169 -11 82 97 100 222 c 0xf2
153 216 m 0
 140 122 209 49 303 49 c 0
 397 49 487 122 500 216 c 0
 512 299 444 384 350 384 c 0
 256 384 166 310 153 216 c 0
EndSplineSet
EndChar

StartChar: seven
Encoding: 55 55 71
Width: 593
VWidth: 0
Flags: HW
LayerCount: 2
Fore
SplineSet
162 676 m 1
 169 730 l 1
 629 730 l 1
 589 676 l 1
 162 676 l 1
158 0 m 5
 564 730 l 1
 629 730 l 1
 224 0 l 1
 158 0 l 5
EndSplineSet
EndChar

StartChar: numbersign
Encoding: 35 35 72
Width: 699
VWidth: 0
Flags: HW
LayerCount: 2
Fore
SplineSet
63 216 m 1
 82 270 l 1
 212 270 l 1
 285 465 l 1
 155 465 l 1
 175 519 l 1
 305 519 l 1
 379 719 l 1
 438 719 l 1
 363 519 l 1
 559 519 l 1
 633 719 l 1
 692 719 l 1
 618 519 l 1
 747 519 l 1
 728 465 l 1
 598 465 l 1
 525 270 l 1
 655 270 l 1
 636 216 l 1
 506 216 l 1
 429 11 l 1
 370 11 l 1
 447 216 l 1
 252 216 l 1
 175 11 l 1
 116 11 l 1
 193 216 l 1
 63 216 l 1
466 270 m 1
 539 465 l 1
 344 465 l 1
 271 270 l 1
 466 270 l 1
EndSplineSet
EndChar

StartChar: parenleft
Encoding: 40 40 73
Width: 183
VWidth: 0
Flags: HW
LayerCount: 2
Fore
SplineSet
119 -114 m 1
 17 161 60 464 238 729 c 1
 275 724 l 1
 127 406 101 216 158 -108 c 1
 119 -114 l 1
EndSplineSet
EndChar

StartChar: parenright
Encoding: 41 41 74
Width: 181
VWidth: 0
Flags: HW
LayerCount: 2
Fore
SplineSet
151 729 m 1
 253 454 210 151 32 -114 c 1
 -5 -108 l 1
 143 210 169 400 112 724 c 1
 151 729 l 1
EndSplineSet
EndChar

StartChar: asterisk
Encoding: 42 42 75
Width: 294
VWidth: 0
Flags: HW
LayerCount: 2
Fore
SplineSet
243 851 m 1
 291 851 l 1
 261 721 l 1
 389 774 l 1
 397 729 l 1
 265 699 l 1
 339 601 l 1
 296 573 l 1
 245 685 l 1
 163 571 l 1
 128 599 l 1
 227 699 l 1
 103 726 l 1
 124 771 l 1
 237 721 l 1
 243 851 l 1
EndSplineSet
EndChar

StartChar: ampersand
Encoding: 38 38 76
Width: 860
VWidth: 0
Flags: HW
LayerCount: 2
Fore
SplineSet
672 239 m 2
 677 243 681 248 683 251 c 1
 774 352 l 1
 819 321 l 1
 728 221 l 1
 722 214 715 206 707 198 c 0
 700 191 l 1
 774 106 l 1
 763 27 l 1
 656 147 l 1
 648 140 l 0
 557 60 455 0 336 0 c 0
 214 0 139 95 153 196 c 0
 164 271 223 337 310 390 c 1
 321 397 392 434 392 434 c 0
 406 441 l 1
 398 451 l 0
 356 501 320 553 332 639 c 0
 342 708 407 800 531 800 c 0
 639 800 689 728 677 642 c 0
 664 551 573 494 491 440 c 0
 479 433 l 1
 663 231 l 1
 672 239 l 2
425 401 m 1
 425 401 376 368 347 351 c 0
 275 311 220 255 212 196 c 0
 201 116 277 56 344 56 c 0
 447 56 529 105 613 180 c 0
 621 187 l 1
 434 407 l 1
 425 401 l 1
460 476 m 2
 545 532 616 582 624 642 c 4
 634 713 588 752 524 752 c 0
 436 752 391 679 385 639 c 0
 376 574 399 533 446 477 c 0
 451 470 l 1
 460 476 l 2
EndSplineSet
EndChar

StartChar: plus
Encoding: 43 43 77
Width: 534
VWidth: 0
Flags: HW
LayerCount: 2
Fore
SplineSet
291 373 m 1
 320 583 l 1
 379 583 l 1
 350 373 l 1
 537 373 l 5
 529 320 l 5
 342 320 l 1
 312 108 l 1
 253 108 l 1
 283 320 l 1
 96 320 l 1
 104 373 l 1
 291 373 l 1
EndSplineSet
EndChar

StartChar: equal
Encoding: 61 61 78
Width: 534
VWidth: 0
Flags: HW
LayerCount: 2
Fore
SplineSet
526 297 m 1
 519 244 l 1
 86 244 l 1
 93 297 l 1
 526 297 l 1
547 449 m 5
 540 396 l 1
 107 396 l 1
 114 449 l 5
 547 449 l 5
EndSplineSet
EndChar

StartChar: hyphen
Encoding: 45 45 79
Width: 421
VWidth: 0
Flags: HW
LayerCount: 2
Fore
SplineSet
371 373 m 5
 364 320 l 1
 148 320 l 1
 155 373 l 5
 371 373 l 5
EndSplineSet
EndChar

StartChar: at
Encoding: 64 64 80
Width: 922
VWidth: 0
Flags: W
HStem: -216 54<318.405 411> -11 54<398.428 548.152 711.326 804.426> 125 55<654 697> 433 54<479.722 626.164> 638 54<477.876 723.108>
VStem: 720 50<412.919 443> 889 50<166.672 453.192>
LayerCount: 2
Fore
SplineSet
752 39 m 1
 740 -15 l 1
 657 -15 626 59 654 180 c 1
 709 180 l 1
 694 114 693 39 752 39 c 1
752 39 m 1
 811 39 864 129 889 238 c 1
 939 238 l 1
 901 74 823 -15 740 -15 c 1
 752 39 l 1
697 125 m 1
 646 125 l 1
 720 443 l 1
 770 443 l 1
 697 125 l 1
673 238 m 0
 697 342 649 433 561 433 c 0
 462 433 365 342 341 238 c 0
 317 134 372 43 471 43 c 0
 570 43 649 134 673 238 c 0
710 238 m 0
 678 101 586 -11 459 -11 c 0
 332 -11 254 101 286 238 c 0
 318 375 447 487 574 487 c 0
 701 487 742 375 710 238 c 0
94 268 m 4
 152 519 388 692 621 692 c 0
 854 692 992 467 939 238 c 1
 889 238 l 1
 940 458 814 638 609 638 c 0
 404 638 195 488 144 268 c 4
 93 48 219 -162 424 -162 c 1
 411 -216 l 1
 178 -216 36 17 94 268 c 4
EndSplineSet
EndChar

StartChar: slash
Encoding: 47 47 81
Width: 435
VWidth: 0
Flags: HW
LayerCount: 2
Fore
SplineSet
7 -27 m 1
 463 757 l 1
 533 757 l 1
 77 -27 l 5
 7 -27 l 1
EndSplineSet
EndChar

StartChar: backslash
Encoding: 92 92 82
Width: 435
VWidth: 0
Flags: HW
LayerCount: 2
Fore
SplineSet
117 757 m 1
 187 757 l 1
 423 -27 l 1
 353 -27 l 5
 117 757 l 1
EndSplineSet
EndChar

StartChar: question
Encoding: 63 63 83
Width: 502
VWidth: 0
Flags: HW
LayerCount: 2
Fore
SplineSet
183 35 m 4xe8
 187 60 209 80 234 80 c 4
 259 80 278 60 274 35 c 4
 270 10 247 -11 222 -11 c 4
 197 -11 179 10 183 35 c 4xe8
483 573 m 4
 498 677 426 768 320 768 c 4
 269 768 215 753 173 720 c 5
 183 789 l 5
 229 811 279 822 328 822 c 4
 465 822 561 710 542 573 c 4
 523 436 395 324 258 324 c 4
 242 324 239 329 239 329 c 5
 230 384 l 5
 230 384 240 379 276 379 c 4
 371 379 468 469 483 573 c 4
222 200 m 5xd8
 230 384 l 5
 259 362 l 5
 306 382 l 5
 269 200 l 5
 222 200 l 5xd8
EndSplineSet
EndChar

StartChar: greater
Encoding: 62 62 84
Width: 536
VWidth: 0
Flags: HW
LayerCount: 2
Fore
SplineSet
117 470 m 1
 125 523 l 1
 560 346 l 1
 452 346 l 5
 117 470 l 1
75 168 m 1
 82 221 l 1
 452 346 l 1
 560 346 l 1
 75 168 l 1
EndSplineSet
EndChar

StartChar: less
Encoding: 60 60 85
Width: 536
VWidth: 0
Flags: HW
LayerCount: 2
Fore
SplineSet
517 222 m 1
 509 169 l 1
 74 346 l 1
 182 346 l 1
 517 222 l 1
559 525 m 1
 552 472 l 1
 182 346 l 1
 74 346 l 1
 559 525 l 1
EndSplineSet
EndChar

StartChar: bracketleft
Encoding: 91 91 86
Width: 242
VWidth: 0
Flags: HW
LayerCount: 2
Fore
SplineSet
176 703 m 1
 183 757 l 1
 421 757 l 1
 418 730 l 1
 176 703 l 1
58 -135 m 1
 66 -81 l 1
 300 -108 l 1
 296 -135 l 1
 58 -135 l 1
58 -135 m 1
 183 757 l 1
 234 735 l 1
 118 -92 l 5
 58 -135 l 1
EndSplineSet
EndChar

StartChar: bracketright
Encoding: 93 93 87
Width: 242
VWidth: 0
Flags: HW
LayerCount: 2
Fore
SplineSet
154 -81 m 5
 147 -135 l 1
 -91 -135 l 1
 -87 -108 l 5
 154 -81 l 5
272 757 m 1
 265 703 l 1
 30 730 l 1
 34 757 l 1
 272 757 l 1
272 757 m 1
 147 -135 l 1
 96 -114 l 1
 214 725 l 1
 272 757 l 1
EndSplineSet
EndChar

StartChar: asciicircum
Encoding: 94 94 88
Width: 346
VWidth: 0
Flags: W
HStem: 626 212
VStem: 118 286
LayerCount: 2
Fore
SplineSet
265 762 m 5
 291 838 l 5
 404 626 l 5
 335 626 l 5
 265 762 l 5
291 838 m 5
 295 762 l 5
 188 626 l 5
 118 626 l 5
 291 838 l 5
EndSplineSet
EndChar

StartChar: underscore
Encoding: 95 95 89
Width: 540
VWidth: 0
Flags: HW
LayerCount: 2
Fore
SplineSet
-25 -178 m 1
 -15 -108 l 1
 526 -108 l 5
 516 -178 l 5
 -25 -178 l 1
EndSplineSet
EndChar

StartChar: bar
Encoding: 124 124 90
Width: 212
VWidth: 0
Flags: HW
LayerCount: 2
Fore
SplineSet
54 -162 m 1
 191 811 l 1
 251 811 l 1
 114 -162 l 1
 54 -162 l 1
EndSplineSet
EndChar

StartChar: braceleft
Encoding: 123 123 91
Width: 245
VWidth: 0
Flags: HW
LayerCount: 2
Fore
SplineSet
148 476 m 1x98
 161 562 l 1
 215 562 l 1
 202 476 l 1
 148 476 l 1x98
202 476 m 1
 183 339 159 303 32 303 c 1xb8
 39 351 l 1xd8
 126 351 135 381 148 476 c 1
 202 476 l 1
37 341 m 1
 164 341 175 283 156 146 c 5
 102 146 l 1
 116 243 115 292 31 292 c 1xd8
 37 341 l 1
258 -135 m 1
 121 -135 71 -78 90 59 c 1
 144 59 l 5
 130 -38 169 -87 264 -87 c 1
 258 -135 l 1
90 59 m 1
 102 146 l 1
 156 146 l 5
 144 59 l 5
 90 59 l 1
161 562 m 1
 180 699 246 757 383 757 c 1
 376 708 l 1
 279 708 228 657 215 562 c 1
 161 562 l 1
EndSplineSet
EndChar

StartChar: braceright
Encoding: 125 125 92
Width: 245
VWidth: 0
Flags: HW
LayerCount: 2
Fore
SplineSet
185 154 m 1x98
 173 67 l 1
 119 67 l 5
 131 154 l 5
 185 154 l 1x98
131 154 m 5
 150 291 175 327 302 327 c 1xb8
 295 278 l 1xd8
 208 278 198 249 185 154 c 1
 131 154 l 5
296 289 m 1
 169 289 158 346 177 483 c 1
 231 483 l 1
 217 386 219 337 303 337 c 1xd8
 296 289 l 1
77 765 m 1
 214 765 263 707 244 570 c 1
 190 570 l 1
 204 667 165 716 70 716 c 1
 77 765 l 1
244 570 m 1
 231 483 l 1
 177 483 l 1
 190 570 l 1
 244 570 l 1
173 67 m 1
 154 -70 89 -128 -48 -128 c 1
 -42 -79 l 1
 55 -79 106 -28 119 67 c 5
 173 67 l 1
EndSplineSet
EndChar

StartChar: asciitilde
Encoding: 126 126 93
Width: 531
VWidth: 0
Flags: W
HStem: 266 161
LayerCount: 2
Fore
SplineSet
516 427 m 5
 507 363 l 5
 282 147 341 493 114 266 c 5
 123 330 l 5
 359 546 289 200 516 427 c 5
EndSplineSet
EndChar

StartChar: cedilla
Encoding: 184 184 94
Width: 237
VWidth: 0
Flags: W
HStem: -216 189
VStem: -9 171
LayerCount: 2
Fore
SplineSet
92 -27 m 1
 162 -27 l 1
 27 -216 l 1
 -9 -216 l 1
 92 -27 l 1
EndSplineSet
EndChar

StartChar: grave
Encoding: 96 96 95
Width: 189
VWidth: 0
Flags: W
HStem: 761 212
VStem: 137 159
LayerCount: 2
Fore
SplineSet
137 973 m 5
 261 973 l 5
 296 761 l 5
 137 973 l 5
EndSplineSet
EndChar

StartChar: exclamdown
Encoding: 161 161 96
Width: 234
VWidth: 0
Flags: HW
LayerCount: 2
Fore
SplineSet
250 695 m 0xc0
 246 670 223 650 198 650 c 0
 173 650 155 670 159 695 c 0
 163 720 186 741 211 741 c 0
 236 741 254 720 250 695 c 0xc0
189 449 m 1x90
 130 -81 l 1
 61 -81 l 1xa0
 152 449 l 1
 189 449 l 1x90
EndSplineSet
EndChar

StartChar: cent
Encoding: 162 162 97
Width: 470
VWidth: 0
Flags: HW
LayerCount: 2
Fore
SplineSet
134 238 m 0
 119 134 190 43 296 43 c 0
 347 43 402 59 443 86 c 1
 434 22 l 1
 388 0 337 -11 288 -11 c 0
 151 -11 55 101 74 238 c 0
 93 375 221 487 358 487 c 0
 407 487 455 476 495 454 c 1
 486 390 l 1
 453 417 402 433 351 433 c 0
 245 433 149 342 134 238 c 0
226 -108 m 1
 323 584 l 1
 372 584 l 1
 275 -108 l 1
 226 -108 l 1
EndSplineSet
EndChar

StartChar: sterling
Encoding: 163 163 98
Width: 474
VWidth: 0
Flags: HW
LayerCount: 2
Fore
SplineSet
10 0 m 1
 18 54 l 5
 483 54 l 5
 475 0 l 1
 10 0 l 1
70 422 m 1
 77 476 l 1
 374 476 l 1
 367 422 l 1
 70 422 l 1
102 0 m 1
 190 622 l 1
 249 622 l 1
 161 0 l 1
 102 0 l 1
404 768 m 1
 412 822 l 1
 499 822 545 762 545 762 c 1
 536 699 l 1
 536 699 482 768 404 768 c 1
404 768 m 1
 314 768 262 712 249 622 c 1
 190 622 l 1
 209 756 291 822 412 822 c 1
 404 768 l 1
EndSplineSet
EndChar

StartChar: currency
Encoding: 164 164 99
Width: 583
VWidth: 0
Flags: HW
LayerCount: 2
Fore
SplineSet
137 238 m 0
 122 131 193 43 298 43 c 0
 403 43 500 131 515 238 c 0
 530 345 458 433 353 433 c 0
 248 433 152 345 137 238 c 0
463 65 m 1
 575 -103 l 1
 500 -103 l 5
 388 65 l 5
 463 65 l 1
214 65 m 1
 56 -103 l 1
 -19 -103 l 1
 139 65 l 1
 214 65 l 1
188 411 m 1
 77 579 l 1
 152 579 l 1
 263 411 l 1
 188 411 l 1
437 411 m 1
 596 579 l 1
 671 579 l 1
 512 411 l 1
 437 411 l 1
77 238 m 0
 96 375 224 487 361 487 c 0
 498 487 594 375 575 238 c 0
 556 101 428 -11 291 -11 c 0
 154 -11 58 101 77 238 c 0
EndSplineSet
EndChar

StartChar: yen
Encoding: 165 165 100
Width: 619
VWidth: 0
Flags: HW
LayerCount: 2
Fore
SplineSet
280 0 m 1xdc
 331 360 l 1
 390 360 l 1
 339 0 l 1
 280 0 l 1xdc
345 250 m 1
 113 730 l 1
 183 730 l 1
 360 360 l 1
 643 730 l 1
 713 730 l 1
 345 250 l 1
141 236 m 1
 146 274 l 1
 551 274 l 1
 546 236 l 1
 141 236 l 1
154 333 m 1xec
 160 371 l 5
 565 371 l 5
 559 333 l 1
 154 333 l 1xec
EndSplineSet
EndChar

StartChar: brokenbar
Encoding: 166 166 101
Width: 212
VWidth: 0
Flags: HW
LayerCount: 2
Fore
SplineSet
198 433 m 1
 138 433 l 1
 191 811 l 1
 251 811 l 1
 198 433 l 1
167 216 m 1
 114 -162 l 1
 54 -162 l 1
 107 216 l 1
 167 216 l 1
EndSplineSet
EndChar

StartChar: section
Encoding: 167 167 102
Width: 437
VWidth: 0
Flags: HW
LayerCount: 2
Fore
SplineSet
283 457 m 1
 230 452 191 404 186 371 c 1
 125 368 l 1
 133 416 173 460 226 476 c 1
 186 498 151 550 158 602 c 1
 219 604 l 1
 214 564 251 521 308 513 c 0
 379 503 450 452 438 368 c 1
 379 366 l 1
 385 416 354 457 294 457 c 0
 290 457 288 458 284 458 c 2
 283 457 l 1
253 226 m 0
 192 237 115 288 125 368 c 1
 186 371 l 1
 181 329 217 279 276 279 c 0
 279 279 281 279 284 279 c 2
 347 283 374 334 379 366 c 1
 438 368 l 1
 430 318 394 277 348 261 c 1
 386 240 413 190 405 135 c 1
 346 132 l 1
 352 183 308 217 253 226 c 0
405 135 m 1
 394 54 321 0 224 0 c 0
 125 0 78 57 65 76 c 1
 105 118 l 1
 121 97 162 53 227 53 c 0
 295 53 341 95 346 132 c 1
 405 135 l 1
158 602 m 1
 169 672 242 731 338 731 c 0
 400 731 449 697 464 684 c 1
 437 634 l 1
 419 651 382 680 326 680 c 0
 270 680 224 640 219 604 c 5
 158 602 l 1
EndSplineSet
EndChar

StartChar: dieresis
Encoding: 168 168 103
Width: 475
VWidth: 0
Flags: W
HStem: 872 91<222.59 291.83 442.885 512.83>
VStem: 212 90<882.228 952.365> 432 91<882.228 952.365>
LayerCount: 2
Fore
SplineSet
432 917 m 0
 436 942 459 963 484 963 c 0
 509 963 527 942 523 917 c 0
 519 892 496 872 471 872 c 0
 446 872 428 892 432 917 c 0
212 917 m 0
 216 942 238 963 263 963 c 0
 288 963 306 942 302 917 c 0
 298 892 275 872 250 872 c 0
 225 872 208 892 212 917 c 0
EndSplineSet
EndChar

StartChar: copyright
Encoding: 169 169 104
Width: 834
VWidth: 0
Flags: HW
LayerCount: 2
Fore
SplineSet
357 366 m 0
 347 294 393 240 464 240 c 0
 502 240 540 251 572 273 c 1
 563 206 l 1
 529 188 492 177 455 177 c 0
 351 177 278 262 293 366 c 0
 308 470 404 554 508 554 c 0
 545 554 580 543 608 525 c 1
 598 458 l 1
 572 480 537 492 499 492 c 0
 428 492 367 438 357 366 c 0
179 366 m 0
 156 201 265 70 428 70 c 0
 591 70 735 201 758 366 c 0
 781 531 674 661 511 661 c 0
 348 661 202 531 179 366 c 0
92 366 m 0
 121 574 314 742 522 742 c 0
 730 742 874 574 845 366 c 0
 816 158 624 -11 416 -11 c 0
 208 -11 63 158 92 366 c 0
EndSplineSet
EndChar

StartChar: registered
Encoding: 174 174 105
Width: 834
VWidth: 0
Flags: HW
LayerCount: 2
Fore
SplineSet
512 548 m 5xdcc0
 581 548 644 518 631 427 c 4
 618 336 547 307 478 307 c 5
 486 367 l 5
 531 367 563 384 569 427 c 4
 575 470 548 488 503 488 c 5
 512 548 l 5xdcc0
394 307 m 5xddc0
 402 367 l 5
 486 367 l 5
 478 307 l 5
 394 307 l 5xddc0
322 182 m 5x9ec0
 374 548 l 5
 436 548 l 5
 384 182 l 5
 322 182 l 5x9ec0
427 488 m 5
 436 548 l 5
 512 548 l 5
 503 488 l 5
 427 488 l 5
529 182 m 5
 451 345 l 5
 518 345 l 5xbcc0
 596 182 l 5
 529 182 l 5
179 366 m 0
 156 201 265 70 428 70 c 0
 591 70 735 201 758 366 c 0
 781 531 674 661 511 661 c 0
 348 661 202 531 179 366 c 0
92 366 m 0
 121 574 314 742 522 742 c 0
 730 742 874 574 845 366 c 0
 816 158 624 -11 416 -11 c 0
 208 -11 63 158 92 366 c 0
EndSplineSet
EndChar

StartChar: ordfeminine
Encoding: 170 170 106
Width: 350
VWidth: 0
Flags: HW
LayerCount: 2
Fore
SplineSet
270 684 m 1xc040
 275 719 l 1
 353 719 l 1
 348 684 l 1
 270 684 l 1xc040
204 643 m 1xc4
 167 643 l 1
 174 693 214 719 275 719 c 1
 270 684 l 1
 237 684 208 669 204 643 c 1xc4
204 643 m 1
 200 617 220 606 253 606 c 1
 248 568 l 1x85
 187 568 160 593 167 643 c 1
 204 643 l 1
327 671 m 1x8080
 343 660 l 1
 336 613 300 568 248 568 c 1
 253 606 l 1x81
 286 606 322 632 327 671 c 1x8080
280 779 m 1x8a
 255 779 228 774 207 758 c 1
 213 800 l 1
 236 811 262 817 286 817 c 5
 280 779 l 1x8a
336 730 m 1xa080
 377 730 l 1xa080
 354 573 l 1xa1
 313 573 l 1xa040
 336 730 l 1xa080
280 779 m 1xaa80
 286 817 l 1
 347 817 386 791 377 730 c 1
 336 730 l 1
 340 758 319 779 280 779 c 1xaa80
EndSplineSet
EndChar

StartChar: guillemotleft
Encoding: 171 171 107
Width: 536
VWidth: 0
Flags: HW
LayerCount: 2
Fore
SplineSet
517 222 m 5
 506 147 l 5
 269 346 l 5
 347 367 l 5
 517 222 l 5
562 546 m 5
 552 472 l 5
 341 326 l 5
 269 346 l 5
 562 546 l 5
322 222 m 5
 311 147 l 5
 74 346 l 5
 153 367 l 5
 322 222 l 5
367 546 m 5
 357 472 l 5
 147 326 l 5
 74 346 l 5
 367 546 l 5
EndSplineSet
EndChar

StartChar: logicalnot
Encoding: 172 172 108
Width: 696
VWidth: 0
Flags: HW
LayerCount: 2
Fore
SplineSet
690 309 m 1
 667 147 l 1
 591 147 l 1
 614 309 l 1
 690 309 l 1
700 384 m 1
 690 309 l 1
 95 309 l 1
 105 384 l 1
 700 384 l 1
EndSplineSet
EndChar

StartChar: uni00AD
Encoding: 173 173 109
Width: 529
VWidth: 0
Flags: HW
LayerCount: 2
Fore
SplineSet
480 373 m 5
 473 320 l 1
 148 320 l 1
 155 373 l 5
 480 373 l 5
EndSplineSet
EndChar

StartChar: macron
Encoding: 175 175 110
Width: 534
VWidth: 0
Flags: HW
LayerCount: 2
Fore
SplineSet
613 918 m 5
 606 865 l 1
 173 865 l 1
 180 918 l 5
 613 918 l 5
EndSplineSet
EndChar

StartChar: degree
Encoding: 176 176 111
Width: 566
VWidth: 0
Flags: W
HStem: 622 59<336.351 427.6> 811 60<347.587 440.336>
VStem: 264 248
LayerCount: 2
Fore
SplineSet
325 746 m 0
 320 710 344 681 379 681 c 0
 414 681 446 710 451 746 c 0
 456 782 433 811 398 811 c 0
 363 811 330 782 325 746 c 0
264 746 m 0
 274 815 337 871 406 871 c 0
 475 871 522 815 512 746 c 0
 502 677 440 622 371 622 c 0
 302 622 254 677 264 746 c 0
EndSplineSet
EndChar

StartChar: plusminus
Encoding: 177 177 112
Width: 534
VWidth: 0
Flags: HW
LayerCount: 2
Fore
SplineSet
492 53 m 1
 484 0 l 1
 51 0 l 1
 59 53 l 1
 492 53 l 1
294 395 m 1
 320 583 l 1
 379 583 l 1
 353 395 l 1
 540 395 l 1
 532 342 l 5
 345 342 l 5
 320 162 l 1
 261 162 l 1
 286 342 l 5
 99 342 l 5
 107 395 l 1
 294 395 l 1
EndSplineSet
EndChar

StartChar: paragraph
Encoding: 182 182 113
Width: 582
VWidth: 0
Flags: HW
LayerCount: 2
Fore
SplineSet
434 811 m 1xfa
 613 811 l 1
 602 735 l 1
 423 735 l 1
 434 811 l 1xfa
320 0 m 1
 434 811 l 1
 505 811 l 1
 391 0 l 1
 320 0 l 1
461 0 m 1xfc
 575 811 l 1xfa
 645 811 l 1
 531 0 l 1
 461 0 l 1xfc
375 389 m 1
 364 314 l 1
 227 314 132 425 151 562 c 0
 170 699 297 811 434 811 c 1
 423 735 l 1
 328 735 245 655 232 562 c 0
 219 469 280 389 375 389 c 1
EndSplineSet
EndChar

StartChar: periodcentered
Encoding: 183 183 114
Width: 255
VWidth: 0
Flags: HW
LayerCount: 2
Fore
SplineSet
117 316 m 4
 121 347 149 372 180 372 c 4
 211 372 233 347 229 316 c 4
 225 285 196 260 165 260 c 4
 134 260 113 285 117 316 c 4
EndSplineSet
EndChar

StartChar: guillemotright
Encoding: 187 187 115
Width: 536
VWidth: 0
Flags: HW
LayerCount: 2
Fore
SplineSet
92 472 m 5
 102 546 l 5
 339 347 l 5
 261 327 l 5
 92 472 l 5
46 147 m 5
 57 222 l 5
 266 368 l 5
 339 347 l 5
 46 147 l 5
287 472 m 5
 297 546 l 5
 534 347 l 5
 456 327 l 5
 287 472 l 5
241 147 m 5
 252 222 l 5
 461 368 l 5
 534 347 l 5
 241 147 l 5
EndSplineSet
EndChar

StartChar: ordmasculine
Encoding: 186 186 116
Width: 401
VWidth: 0
Flags: HW
LayerCount: 2
Fore
SplineSet
219 719 m 4
 212 672 242 633 290 633 c 4
 338 633 379 672 386 719 c 4
 393 766 362 806 314 806 c 4
 266 806 226 766 219 719 c 4
178 719 m 4
 188 788 251 844 320 844 c 4
 389 844 437 788 427 719 c 4
 417 650 354 595 285 595 c 4
 216 595 168 650 178 719 c 4
EndSplineSet
EndChar

StartChar: questiondown
Encoding: 191 191 117
Width: 502
VWidth: 0
Flags: HW
LayerCount: 2
Fore
SplineSet
453 695 m 0xf8
 449 670 427 650 402 650 c 0
 377 650 358 670 362 695 c 0
 366 720 389 741 414 741 c 0
 439 741 457 720 453 695 c 0xf8
153 157 m 0
 138 53 209 -38 315 -38 c 0
 366 -38 421 -23 463 10 c 1
 453 -59 l 1
 407 -81 356 -92 307 -92 c 0
 170 -92 75 20 94 157 c 0
 113 294 240 406 377 406 c 0
 393 406 397 401 397 401 c 1
 406 346 l 1
 406 346 396 351 360 351 c 0
 265 351 168 261 153 157 c 0
414 530 m 1xf4
 406 346 l 1
 377 368 l 1
 330 348 l 1
 366 530 l 1
 414 530 l 1xf4
EndSplineSet
EndChar

StartChar: acute
Encoding: 180 180 118
Width: 189
VWidth: 0
Flags: W
HStem: 761 212
VStem: 107 219
LayerCount: 2
Fore
SplineSet
326 973 m 1
 107 761 l 1
 202 973 l 1
 326 973 l 1
EndSplineSet
EndChar

StartChar: mu
Encoding: 181 181 119
Width: 590
VWidth: 0
Flags: HW
LayerCount: 2
Fore
SplineSet
569 465 m 1
 505 11 l 1
 446 11 l 1
 463 132 l 1
 428 62 357 5 276 0 c 1
 284 54 l 1
 379 60 458 138 476 227 c 1
 510 465 l 1
 569 465 l 1
123 -195 m 1
 63 -195 l 1
 156 465 l 1
 216 465 l 1
 166 115 l 1
 188 81 235 57 284 54 c 5
 276 0 l 5
 227 3 182 26 159 59 c 1
 123 -195 l 1
EndSplineSet
EndChar

StartChar: igrave
Encoding: 236 236 157
Width: 242
VWidth: 0
Flags: HW
LayerCount: 2
Fore
SplineSet
92 0 m 1xd0
 159 476 l 1
 217 476 l 1
 150 0 l 1
 92 0 l 1xd0
EndSplineSet
Refer: 95 96 N 1 0 0 1 -88 -145 2
EndChar

StartChar: iacute
Encoding: 237 237 158
Width: 242
VWidth: 0
Flags: HW
LayerCount: 2
Fore
SplineSet
92 0 m 1
 159 476 l 1
 217 476 l 1
 150 0 l 1
 92 0 l 1
EndSplineSet
Refer: 118 180 S 1 0 0 1 101 -145 2
EndChar

StartChar: icircumflex
Encoding: 238 238 159
Width: 242
VWidth: 0
Flags: HW
LayerCount: 2
Fore
SplineSet
92 0 m 1xd0
 159 476 l 1
 217 478 l 5
 150 2 l 5
 92 0 l 1xd0
EndSplineSet
Refer: 88 94 N 1 0 0 1 -55 -10 2
EndChar

StartChar: idieresis
Encoding: 239 239 160
Width: 242
VWidth: 0
Flags: HW
LayerCount: 2
Fore
SplineSet
92 0 m 1xd8
 159 476 l 1
 217 476 l 1
 150 0 l 1
 92 0 l 1xd8
EndSplineSet
Refer: 103 168 N 1 0 0 1 -160 -277 2
EndChar

StartChar: thorn
Encoding: 254 254 173
Width: 571
VWidth: 0
Flags: HW
LayerCount: 2
Fore
SplineSet
108 -205 m 1
 48 -205 l 1
 191 811 l 1
 251 811 l 1
 188 360 l 1
 227 436 291 487 372 487 c 0
 493 487 583 375 564 238 c 0
 545 101 423 -11 302 -11 c 0
 221 -11 170 40 153 116 c 1
 108 -205 l 1
365 433 m 0
 274 433 185 342 170 238 c 0
 155 134 219 43 310 43 c 0
 401 43 490 134 505 238 c 0
 520 342 456 433 365 433 c 0
EndSplineSet
EndChar

StartChar: AE
Encoding: 198 198 174
Width: 885
VWidth: 0
Flags: HW
LayerCount: 2
Fore
SplineSet
78 11 m 1xf8
 16 11 l 1
 479 719 l 5
 478 708 l 1
 479 719 l 1
 567 719 l 1xf8
 625 719 l 1xf4
 995 719 l 1
 988 665 l 1
 618 665 l 1xf8
 526 11 l 1xf4
 468 11 l 1
 500 238 l 1
 229 238 l 1
 78 11 l 1xf8
835 346 m 1
 572 346 l 1
 579 400 l 1xf4
 842 400 l 1
 835 346 l 1
896 11 m 1
 525 11 l 1
 532 65 l 1
 903 65 l 1
 896 11 l 1
506 665 m 1
 263 292 l 1
 507 292 l 1
 560 665 l 1xf8
 506 665 l 1
EndSplineSet
EndChar

StartChar: Oslash
Encoding: 216 216 175
Width: 834
VWidth: 0
Flags: HW
LayerCount: 2
Fore
SplineSet
157 366 m 0
 132 191 253 49 425 49 c 0
 597 49 755 191 780 366 c 0
 805 541 686 682 514 682 c 0
 342 682 182 541 157 366 c 0
253 -108 m 1
 631 811 l 1
 691 811 l 1
 313 -108 l 1
 253 -108 l 1
92 366 m 0
 121 574 314 742 522 742 c 0
 730 742 874 574 845 366 c 0
 816 158 624 -11 416 -11 c 0
 208 -11 63 158 92 366 c 0
EndSplineSet
EndChar

StartChar: oslash
Encoding: 248 248 176
Width: 578
VWidth: 0
Flags: HW
LayerCount: 2
Fore
SplineSet
134 238 m 0
 119 131 191 43 296 43 c 0
 401 43 497 131 512 238 c 0
 527 345 456 433 351 433 c 0
 246 433 149 345 134 238 c 0
74 238 m 0
 93 375 221 487 358 487 c 0
 495 487 591 375 572 238 c 0
 553 101 425 -11 288 -11 c 0
 151 -11 55 101 74 238 c 0
145 -108 m 1
 437 584 l 1
 496 584 l 1
 205 -108 l 1
 145 -108 l 1
EndSplineSet
EndChar

StartChar: Thorn
Encoding: 222 222 177
Width: 503
VWidth: 0
Flags: HW
LayerCount: 2
Fore
SplineSet
343 540 m 1xc8
 351 595 l 1
 466 590 534 505 516 376 c 0
 498 246 404 163 289 158 c 1
 297 212 l 1
 378 217 443 279 457 376 c 0
 471 474 421 535 343 540 c 1xc8
289 158 m 5
 142 158 l 1
 150 212 l 1xd8
 297 212 l 5
 289 158 l 5
138 11 m 1xe8
 78 11 l 1
 178 719 l 1
 238 719 l 1
 138 11 l 1xe8
343 541 m 1
 202 541 l 1
 210 595 l 1
 351 595 l 1
 343 541 l 1
EndSplineSet
EndChar

StartChar: divide
Encoding: 247 247 178
Width: 534
VWidth: 0
Flags: HW
CounterMasks: 1 e0
LayerCount: 2
Fore
SplineSet
297 535 m 0
 301 560 324 581 349 581 c 0
 374 581 392 560 388 535 c 0
 384 510 361 490 336 490 c 0
 311 490 293 510 297 535 c 0
245 158 m 4
 249 183 271 203 296 203 c 4
 321 203 340 183 336 158 c 4
 332 133 308 112 283 112 c 4
 258 112 241 133 245 158 c 4
104 373 m 1
 537 373 l 1
 529 320 l 1
 96 320 l 1
 104 373 l 1
EndSplineSet
EndChar

StartChar: multiply
Encoding: 215 215 179
Width: 611
VWidth: 0
Flags: HW
LayerCount: 2
Fore
SplineSet
159 584 m 1
 239 584 l 1
 559 162 l 5
 479 162 l 5
 159 584 l 1
100 162 m 5
 538 584 l 1
 618 584 l 1
 180 162 l 5
 100 162 l 5
EndSplineSet
EndChar

StartChar: ae
Encoding: 230 230 180
Width: 933
VWidth: 0
Flags: HW
LayerCount: 2
Fore
SplineSet
154 458 m 1xb8
 198 477 243 487 286 487 c 0
 376 487 422 456 430 388 c 0
 433 364 l 1
 449 385 l 0
 496 447 565 487 643 487 c 0
 770 487 851 376 831 237 c 0
 831 235 830 233 830 231 c 1
 436 231 l 1xd8
 435 218 l 0
 430 122 489 43 581 43 c 0
 634 43 693 61 738 99 c 1
 761 59 l 1
 704 16 636 -11 573 -11 c 0
 490 -11 429 36 402 106 c 0
 394 126 l 1
 382 104 l 0
 350 40 283 -11 210 -11 c 0
 94 -11 47 39 60 135 c 0
 73 230 146 281 262 281 c 0
 386 281 l 1
 391 316 l 0
 400 383 358 433 279 433 c 0
 236 433 187 425 146 401 c 1
 154 458 l 1xb8
114 135 m 0
 105 71 152 43 218 43 c 0
 286 43 361 101 374 192 c 0
 380 233 l 1
 256 233 l 0xb8
 191 233 123 200 114 135 c 0
456 306 m 0
 449 292 l 1
 776 292 l 1xd8
 774 306 l 0
 764 378 714 433 636 433 c 0
 558 433 488 378 456 306 c 0
EndSplineSet
EndChar

StartChar: Eth
Encoding: 208 208 181
Width: 679
VWidth: 0
Flags: HW
LayerCount: 2
Fore
SplineSet
625 366 m 0xe6
 649 534 543 655 390 660 c 1
 398 719 l 1
 585 713 718 563 690 366 c 0
 662 168 486 17 299 11 c 1
 307 70 l 1
 464 75 601 198 625 366 c 0xe6
300 11 m 5
 141 11 l 1
 149 70 l 1xee
 308 70 l 5
 300 11 l 5
232 660 m 1
 240 719 l 1
 399 719 l 1
 391 660 l 1
 232 660 l 1
129 341 m 1xf6
 48 341 l 1
 54 384 l 1
 135 384 l 1
 182 719 l 1xf6
 241 719 l 1xee
 194 384 l 1
 399 384 l 1
 393 341 l 1
 188 341 l 1xf6
 142 11 l 1xee
 83 11 l 1
 129 341 l 1xf6
EndSplineSet
EndChar

StartChar: eth
Encoding: 240 240 182
Width: 574
VWidth: 0
Flags: HW
LayerCount: 2
Fore
SplineSet
494 362 m 1
 490 415 l 2
 486 492 464 558 436 613 c 0
 433 619 l 1
 232 592 l 1
 236 623 l 1
 418 647 l 1
 407 662 l 0
 359 736 300 786 266 811 c 1
 332 811 l 1
 345 803 418 757 473 660 c 0
 475 655 l 1
 634 674 l 1
 629 643 l 1
 490 626 l 1
 497 612 l 0
 534 532 555 427 536 292 c 0
 509 98 388 -11 268 -11 c 0
 146 -11 55 101 74 238 c 0
 93 375 216 487 338 487 c 0
 403 487 446 456 469 407 c 0
 494 362 l 1
276 43 m 0
 369 43 454 134 469 238 c 0
 484 342 424 433 331 433 c 0
 238 433 149 342 134 238 c 0
 119 134 183 43 276 43 c 0
EndSplineSet
EndChar

